<svg width="32" height="32" viewBox="0 0 32 32" xmlns="http://www.w3.org/2000/svg">
  <!-- top horizontal pipe -->
  <line x1="1" y1="1" x2="16" y2="1" stroke="#7f7f7f" stroke-width="2" stroke-linecap="round" />

  <!-- left vertical pipe -->
  <line x1="1" y1="1" x2="1" y2="31" stroke="#7f7f7f" stroke-width="2" stroke-linecap="round" />

  <!-- pipe to head -->
  <line x1="16" y1="1" x2="16" y2="3" stroke="#7f7f7f" stroke-width="2" stroke-linecap="round" />

  <!-- shower head -->
  <path d="M8 11 A8 7 0 0 1 24 11" fill="none" stroke="#7f7f7f" stroke-width="2" />
  <line x1="7" y1="11" x2="25" y2="11" stroke="#7f7f7f" stroke-width="2" stroke-linecap="round" />

  <!-- large drops, left to right -->
  <circle class="drop drop-top" fill="#1976d2" fill-opacity="0" cx="8" cy="16" r="1.25" />
  <circle class="drop drop-top" fill="#1976d2" fill-opacity="0" cx="13.3" cy="16" r="1.25" />
  <circle class="drop drop-top" fill="#1976d2" fill-opacity="0" cx="18.6" cy="16" r="1.25" />
  <circle class="drop drop-top" fill="#1976d2" fill-opacity="0" cx="24" cy="16" r="1.25" />

  <!-- middle drops, left to right -->
  <circle class="drop drop-middle" fill="#1976d2" fill-opacity="0" cx="8" cy="22" r="1" />
  <circle class="drop drop-middle" fill="#1976d2" fill-opacity="0" cx="13.3" cy="22" r="1" />
  <circle class="drop drop-middle" fill="#1976d2" fill-opacity="0" cx="18.6" cy="22" r="1" />
  <circle class="drop drop-middle" fill="#1976d2" fill-opacity="0" cx="24" cy="22" r="1" />

  <!-- small drops, left to right -->
  <circle class="drop drop-bottom" fill="#1976d2" fill-opacity="0" cx="8" cy="28" r="0.75" />
  <circle class="drop drop-bottom" fill="#1976d2" fill-opacity="0" cx="13.3" cy="28" r="0.75" />
  <circle class="drop drop-bottom" fill="#1976d2" fill-opacity="0" cx="18.6" cy="28" r="0.75" />
  <circle class="drop drop-bottom" fill="#1976d2" fill-opacity="0" cx="24" cy="28" r="0.75" />
</svg>
