<svg height="512px" width="512px" viewBox="0 0 512 512" xmlns="http://www.w3.org/2000/svg">
  <path
    fill="currentColor"
    d="M489.6,218.8h-0.4l-42.9-42.9c-1.2-1.2-2.1-2.5-2.7-4.1c-0.6-1.6-0.9-3.2-0.9-4.9V71.3c0-21-17-38-38-38h-26.7c-10.1,0-19.8,4-26.9,11.1c-7.1,7.1-11.1,16.8-11.1,26.9v0.6l-64.3-63.3c-14.8-14.8-38.6-14.2-53.2,0.6L8.1,224.1c-7.1,7.1-10.5,16-10.2,24.9c0.3,8.9,4,17.3,11.1,24.4l20.5,20.3c14.8,14.8,38.7,14.9,53.4,0.2l164.6-162.2c3.5-3.5,8.2-3.5,11.7,0l161.3,161.3c3.5,3.5,3.5,8.2,0,11.7l-19.9,19.9c-3.5,3.5-8.2,3.5-11.7,0L275.6,214.7c-7.1-7.1-16.7-10.7-26.7-10.7c-10,0-19.5,3.9-26.5,11.1l-109,109c-7.1,7.1-11.1,16.8-11.1,26.9c0,10.1,4,19.8,11.1,26.9l20.1,20.1c14.8,14.8,38.7,14.9,53.4,0.2l58.6-57.9c3.5-3.5,8.2-3.5,11.7,0l58.3,57.3c1.2,1.2,2.1,2.5,2.7,4.1c0.6,1.6,0.9,3.2,0.9,4.9c0,2.3-0.9,4.6-2.5,5.8l-57.7,57.9c-0.2,0-0.4-0.2-0.8-0.2c-4.3,0-8.4,1.3-12.1,3.7c-3.7,2.4-6.5,5.9-8,9.7c-1.5,3.8-1.8,8.1-1.2,12.5c0.6,4.4,2.4,8.3,5.8,11.1c3.4,2.8,7.6,4.5,11.1,5.8c3.5,1.3,7.4,1.5,12.5-1.2c3.8-1.5,7.3-4.3,9.7-8c2.4-3.7,3.7-7.8,3.7-12.1v-0.4l58.1-58.1c3.5-3.5,6.4-7.6,8.2-12.5c1.8-4.9,2.7-10,2.7-14.6c0-4.6-0.9-9.7-2.7-14.6c-1.8-4.9-4.7-9-8.4-12.3l-58.3-57.3c-14.8-14.8-38.7-14.8-53.4,0l-58.7,57.5c-3.5,3.5-8.2,3.5-11.7,0l-20.3-20.3c-3.5-3.5-3.5-8.2,0-11.7l108.7-109.3c1.6-1.6,3.7-2.5,5.8-2.5c2.1,0,4.2,0.9,5.8,2.3l116.2,110.8c7.1,7.1,16.7,10.7,26.7,10.7c10,0,19.5-3.9,26.5-11.1l19.9-19.9c7.1-7.1,11.1-16.8,11.1-26.9c0-10.1-4-19.8-11.1-26.9L281.5,116.2c-14.8-14.8-38.7-14.9-53.4-0.2L63.7,278.2c-3.5,3.5-8.2,3.5-11.7,0L31.8,257.9c-3.5-3.5-3.5-8.2,0-11.7L246.2,31.8c1.6-1.6,3.7-2.5,5.8-2.5c2.1,0,4.2,0.9,5.8,2.3l113.5,109.9V71.3c0-2.3,0.9-4.6,2.3-5.8c1.4-1.2,3.5-2.3,5.8-2.3h26.7c2.3,0,4.4,1.1,5.8,2.3c1.4,1.2,2.5,3.5,2.5,5.8v99.2c0,10.1,4,19.8,11.1,26.9l42.7,42.7c0,0.2-0.2,0.6-0.2,0.8c0,4.3,1.3,8.4,3.7,12.1c2.4,3.7,5.9,6.5,9.7,8c3.8,1.5,8.1,1.8,12.5,1.2c4.4-0.6,8.3-2.4,11.1-5.8c2.8-3.4,4.5-7.6,5.8-11.1c1.3-3.5,1.5-7.4-1.2-12.5c-1.5-3.8-4.3-7.3-8-9.7C497.6,219.9,493.6,218.8,489.6,218.8z"
  />
</svg>
