<svg height="512px" width="512px" viewBox="0 0 512 512" xmlns="http://www.w3.org/2000/svg">
  <g transform="translate(256, 280) scale(1.37) translate(-256, -256)">
    <path
      fill="currentColor"
      d="M256 212.26666666666665c-21.333333333333332 0 -41.421866666666666 -3.8218666666666667 -60.266666666666666 -11.466666666666665 -18.8448 -7.6448 -35.733333333333334 -18.0448 -50.666666666666664 -31.199999999999996l29.333333333333332 -17.599999999999998c8.533333333333333 6.3999999999999995 18.311466666666664 12 29.333333333333332 16.799999999999997 11.021866666666668 4.8 23.111466666666665 8.266666666666666 36.266666666666666 10.399999999999999V62.93333333333334L256 53.33333333333333l16 9.6v116.26666666666667c12.799999999999999 -2.1333333333333333 24.8 -5.6 36 -10.399999999999999 11.2 -4.8 21.066666666666666 -10.399999999999999 29.599999999999998 -16.799999999999997l29.333333333333332 17.599999999999998c-14.933333333333332 13.1552 -31.821866666666665 23.5552 -50.666666666666664 31.199999999999996C297.42186666666663 208.4448 277.3333333333333 212.26666666666665 256 212.26666666666665Zm-35.199999999999996 211.73333333333335 -29.866666666666664 -16c0.3552 -2.8447999999999998 0.6218666666666666 -5.511466666666667 0.7999999999999999 -8 0.1781333333333333 -2.4885333333333333 0.26666666666666666 -5.1552 0.26666666666666666 -8 0 -8.533333333333333 -0.9781333333333333 -17.511466666666664 -2.9333333333333336 -26.93333333333333 -1.9551999999999998 -9.421866666666666 -4.7114666666666665 -18.7552 -8.266666666666666 -28l-100.26666666666667 60.8L64 388.8V370.1333333333333l99.73333333333332 -60.266666666666666c-8.178133333333333 -9.6 -17.1552 -18.0448 -26.93333333333333 -25.333333333333332 -9.778133333333333 -7.2885333333333335 -19.821866666666665 -12.888533333333331 -30.133333333333333 -16.799999999999997v-34.13333333333333c34.13333333333333 10.311466666666666 62.22186666666667 29.955199999999998 84.26666666666667 58.93333333333334 22.0448 28.978133333333332 33.06666666666666 62.13333333333333 33.06666666666666 99.46666666666665 0 5.688533333333333 -0.26666666666666666 11.2 -0.7999999999999999 16.53333333333333 -0.5333333333333333 5.333333333333333 -1.3333333333333333 10.488533333333333 -2.4 15.466666666666665Zm70.39999999999999 0c-1.0666666666666667 -4.978133333333333 -1.8666666666666665 -10.133333333333333 -2.4 -15.466666666666665 -0.5333333333333333 -5.333333333333333 -0.7999999999999999 -10.8448 -0.7999999999999999 -16.53333333333333 0 -37.33333333333333 11.021866666666668 -70.48853333333332 33.06666666666666 -99.46666666666665 22.0448 -28.978133333333332 50.13333333333333 -48.62186666666666 84.26666666666667 -58.93333333333334v34.13333333333333c-10.311466666666666 3.9114666666666666 -20.3552 9.511466666666667 -30.133333333333333 16.799999999999997 -9.778133333333333 7.2885333333333335 -18.7552 15.733333333333334 -26.93333333333333 25.333333333333332L448 370.1333333333333v18.666666666666664l-16.53333333333333 9.066666666666666 -100.26666666666667 -60.8c-3.5551999999999997 9.2448 -6.311466666666666 18.578133333333334 -8.266666666666666 28 -1.9551999999999998 9.421866666666666 -2.9333333333333336 18.4 -2.9333333333333336 26.93333333333333 0 2.8447999999999998 0.08853333333333332 5.511466666666667 0.26666666666666666 8 0.1781333333333333 2.4885333333333333 0.4448 5.1552 0.7999999999999999 8l-29.866666666666664 16Z"
    />
  </g>
</svg>
